# xmcd
#
# Track frame offsets:
#	150
#	12915
#	23277
#	34605
#	54470
#	67155
#	79687
#	92830
#	102135
#	118390
#
# Disc length: 1694 seconds
#
# Revision: 1
# Processed by: cddbd v1.5.2PL0 Copyright (c) Steve Scherf et al.
# Submitted via: audiograbber 1.83.01
#
DISCID=76069c0a
DTITLE=The International Submarine Band - Safe At Home
DYEAR=1968
DGENRE=CountryRock
TTITLE0=Blue Eyes
TTITLE1=I Must Be Somebody Else You've Known
TTITLE2=A Satisfied Mind
TTITLE3=Folsom Prison Blues - That's All Right
TTITLE4=Miller's Cave
TTITLE5=I Still Miss Someone
TTITLE6=Luxury Liner
TTITLE7=Strong Boy
TTITLE8=Do You Know How It Feels To Be Lonesome?
TTITLE9=Knee Deep In The Blues [originally unissued]
EXTD=
EXTT0=
EXTT1=
EXTT2=
EXTT3=
EXTT4=
EXTT5=
EXTT6=
EXTT7=
EXTT8=
EXTT9=
PLAYORDER=
